<svg id="Capa_1" data-name="Capa 1" xmlns="http://www.w3.org/2000/svg" xmlns:xlink="http://www.w3.org/1999/xlink" viewBox="0 0 157 121"><defs><style>.cls-1{fill:none;}.cls-2{fill:#0f2078;stroke:#0f2078;stroke-miterlimit:10;stroke-width:0.75px;}.cls-3{clip-path:url(#clip-path);}</style><clipPath id="clip-path"><rect class="cls-1" x="19.02" y="12.41" width="118.72" height="73.38"/></clipPath></defs><path class="cls-2" d="M28.87,93.75v10.33H34.7a1.58,1.58,0,0,1,1.07.34,1.11,1.11,0,0,1,.37.86,1,1,0,0,1-.37.84,1.54,1.54,0,0,1-1.07.33h-7A1.51,1.51,0,0,1,26,104.69V93.75a1.92,1.92,0,0,1,.39-1.31,1.33,1.33,0,0,1,1-.43,1.37,1.37,0,0,1,1,.43A1.88,1.88,0,0,1,28.87,93.75Z"/><path class="cls-2" d="M46.86,104.84l-.68-1.78H40.4l-.67,1.82a6.53,6.53,0,0,1-.68,1.44,1.08,1.08,0,0,1-.92.37,1.34,1.34,0,0,1-1-.4,1.2,1.2,0,0,1-.42-.9,2.21,2.21,0,0,1,.1-.6c.06-.21.17-.49.32-.86l3.63-9.22c.11-.27.23-.58.37-1a4.61,4.61,0,0,1,.47-.92,1.79,1.79,0,0,1,.65-.6,2.36,2.36,0,0,1,2,0,1.85,1.85,0,0,1,.65.59,3.58,3.58,0,0,1,.42.77c.11.27.26.64.43,1.1l3.71,9.16a4.71,4.71,0,0,1,.44,1.52,1.27,1.27,0,0,1-.42.91,1.35,1.35,0,0,1-1,.41,1.31,1.31,0,0,1-.58-.12,1.2,1.2,0,0,1-.41-.33,3.2,3.2,0,0,1-.35-.64C47.05,105.31,47,105.06,46.86,104.84Zm-5.7-3.94H45.4L43.26,95Z"/><path class="cls-2" d="M62.83,102.19a4.18,4.18,0,0,1-.66,2.31,4.42,4.42,0,0,1-2,1.61,7.22,7.22,0,0,1-3,.58,6.83,6.83,0,0,1-3.47-.79,4.6,4.6,0,0,1-1.57-1.53,3.5,3.5,0,0,1-.61-1.85,1.26,1.26,0,0,1,.37-.9,1.22,1.22,0,0,1,.92-.37,1.06,1.06,0,0,1,.77.29,2.27,2.27,0,0,1,.54.86,5.63,5.63,0,0,0,.59,1.13,2.25,2.25,0,0,0,.88.75,3.22,3.22,0,0,0,1.5.3,3.36,3.36,0,0,0,2.08-.6,1.78,1.78,0,0,0,.8-1.48,1.55,1.55,0,0,0-.43-1.15,2.82,2.82,0,0,0-1.11-.68c-.46-.15-1.07-.31-1.83-.49a13.47,13.47,0,0,1-2.56-.84A4.11,4.11,0,0,1,52.42,98a3.44,3.44,0,0,1-.6-2.06,3.54,3.54,0,0,1,.64-2.09A4,4,0,0,1,54.3,92.5,7.53,7.53,0,0,1,57.15,92a7,7,0,0,1,2.27.32,4.86,4.86,0,0,1,1.58.86,3.76,3.76,0,0,1,.92,1.13,2.64,2.64,0,0,1,.29,1.15,1.38,1.38,0,0,1-.36.93,1.19,1.19,0,0,1-.91.41,1,1,0,0,1-.75-.25,3.16,3.16,0,0,1-.56-.81,3.75,3.75,0,0,0-.93-1.25A2.71,2.71,0,0,0,57,94.05a3,3,0,0,0-1.8.49,1.44,1.44,0,0,0-.68,1.18,1.2,1.2,0,0,0,.23.73,1.88,1.88,0,0,0,.64.53,4.13,4.13,0,0,0,.82.35c.28.09.74.21,1.38.37.8.19,1.53.4,2.17.62a6.76,6.76,0,0,1,1.66.82,3.51,3.51,0,0,1,1.07,1.23A4,4,0,0,1,62.83,102.19Z"/><path class="cls-2" d="M73.05,93.75v10.33h5.83a1.58,1.58,0,0,1,1.07.34,1.11,1.11,0,0,1,.37.86,1.06,1.06,0,0,1-.36.84,1.59,1.59,0,0,1-1.08.33H71.93a1.51,1.51,0,0,1-1.76-1.76V93.75a1.92,1.92,0,0,1,.39-1.31,1.34,1.34,0,0,1,1-.43,1.37,1.37,0,0,1,1.06.43A1.88,1.88,0,0,1,73.05,93.75Z"/><path class="cls-2" d="M91.57,94.47H85.09V98h6a1.42,1.42,0,0,1,1,.3,1.12,1.12,0,0,1,0,1.57,1.39,1.39,0,0,1-1,.3h-6v4h6.7a1.47,1.47,0,0,1,1,.32,1.08,1.08,0,0,1,.35.83,1.06,1.06,0,0,1-.35.82,1.47,1.47,0,0,1-1,.32H84a1.51,1.51,0,0,1-1.76-1.76V94a2.28,2.28,0,0,1,.19-1,1.13,1.13,0,0,1,.57-.57,2.42,2.42,0,0,1,1-.18h7.6a1.48,1.48,0,0,1,1,.3,1.15,1.15,0,0,1,0,1.61A1.48,1.48,0,0,1,91.57,94.47Z"/><path class="cls-2" d="M99.19,93.73l5.53,8.37V93.65a1.81,1.81,0,0,1,.36-1.23,1.16,1.16,0,0,1,1-.41,1.22,1.22,0,0,1,1,.41,1.81,1.81,0,0,1,.36,1.23v11.17c0,1.25-.52,1.87-1.55,1.87a2.19,2.19,0,0,1-.7-.11,1.84,1.84,0,0,1-.58-.35,3.46,3.46,0,0,1-.5-.57l-.47-.66-5.4-8.28V105a1.76,1.76,0,0,1-.37,1.23,1.34,1.34,0,0,1-2,0,1.84,1.84,0,0,1-.37-1.23v-11a3,3,0,0,1,.16-1.1,1.54,1.54,0,0,1,.61-.71,1.68,1.68,0,0,1,.92-.27,1.62,1.62,0,0,1,.66.12,1.72,1.72,0,0,1,.49.34,3.92,3.92,0,0,1,.42.55C98.89,93.25,99,93.48,99.19,93.73Zm.31-3.57c-.33,0-.55.22-.67.65s-.29.58-.52.58a.5.5,0,0,1-.38-.2.87.87,0,0,1-.17-.56A2.18,2.18,0,0,1,98,89.7a1.76,1.76,0,0,1,.6-.72,1.39,1.39,0,0,1,.82-.27,2.37,2.37,0,0,1,.81.13,10.27,10.27,0,0,1,1,.41l.86.37a1.7,1.7,0,0,0,.51.08.64.64,0,0,0,.44-.14.93.93,0,0,0,.25-.51c.1-.37.28-.56.52-.56a.5.5,0,0,1,.39.2.87.87,0,0,1,.17.56,2.41,2.41,0,0,1-.42,1.22,1.36,1.36,0,0,1-1.27.68A2.1,2.1,0,0,1,102,91a9.64,9.64,0,0,1-1-.38l-.91-.39A1.54,1.54,0,0,0,99.5,90.16Z"/><path class="cls-2" d="M119.6,104.84l-.68-1.78h-5.77l-.68,1.82a6.1,6.1,0,0,1-.68,1.44,1.06,1.06,0,0,1-.92.37,1.3,1.3,0,0,1-1-.4,1.2,1.2,0,0,1-.42-.9,1.89,1.89,0,0,1,.1-.6c.06-.21.17-.49.32-.86l3.63-9.22c.1-.27.23-.58.37-1a4.61,4.61,0,0,1,.47-.92,1.79,1.79,0,0,1,.65-.6,2,2,0,0,1,1-.22,2,2,0,0,1,1,.22,1.94,1.94,0,0,1,.65.59,4.73,4.73,0,0,1,.42.77c.11.27.25.64.43,1.1l3.71,9.16a4.62,4.62,0,0,1,.43,1.52,1.25,1.25,0,0,1-.41.91,1.35,1.35,0,0,1-1,.41,1.28,1.28,0,0,1-.58-.12,1.2,1.2,0,0,1-.41-.33,2.76,2.76,0,0,1-.35-.64C119.8,105.31,119.69,105.06,119.6,104.84Zm-5.69-3.94h4.24L116,95Z"/><path class="cls-2" d="M135.58,102.19a4.19,4.19,0,0,1-.67,2.31,4.39,4.39,0,0,1-1.94,1.61,7.22,7.22,0,0,1-3,.58,6.83,6.83,0,0,1-3.47-.79,4.51,4.51,0,0,1-1.57-1.53,3.41,3.41,0,0,1-.61-1.85,1.25,1.25,0,0,1,1.29-1.27,1.07,1.07,0,0,1,.77.29,2.27,2.27,0,0,1,.54.86,5.64,5.64,0,0,0,.58,1.13,2.28,2.28,0,0,0,.89.75,3.22,3.22,0,0,0,1.5.3,3.4,3.4,0,0,0,2.08-.6,1.78,1.78,0,0,0,.8-1.48,1.59,1.59,0,0,0-.43-1.15,2.79,2.79,0,0,0-1.12-.68c-.45-.15-1.06-.31-1.82-.49a13.59,13.59,0,0,1-2.57-.84,4.15,4.15,0,0,1-1.63-1.3,3.38,3.38,0,0,1-.61-2.06,3.54,3.54,0,0,1,.64-2.09,4,4,0,0,1,1.85-1.39A7.53,7.53,0,0,1,129.9,92a7,7,0,0,1,2.26.32,4.76,4.76,0,0,1,1.58.86,3.61,3.61,0,0,1,.92,1.13,2.53,2.53,0,0,1,.3,1.15,1.39,1.39,0,0,1-.37.93,1.16,1.16,0,0,1-.9.41,1,1,0,0,1-.75-.25,2.93,2.93,0,0,1-.56-.81,3.75,3.75,0,0,0-.93-1.25,2.71,2.71,0,0,0-1.74-.45,3,3,0,0,0-1.8.49,1.43,1.43,0,0,0-.69,1.18,1.14,1.14,0,0,0,.24.73,1.79,1.79,0,0,0,.64.53,3.89,3.89,0,0,0,.82.35c.28.09.74.21,1.38.37.8.19,1.52.4,2.17.62a6.94,6.94,0,0,1,1.66.82,3.48,3.48,0,0,1,1.06,1.23A3.86,3.86,0,0,1,135.58,102.19Z"/><g class="cls-3"><image width="3200" height="2865" transform="translate(19.02 12.41) scale(0.04)" xlink:href="../../../PC%20MATI%20COMPAQ/DESCARGAS/Logo%20Le%C3%B1as-01.png"/></g></svg>